<?xml version="1.0"?>
<svg width="640" height="480" xmlns="http://www.w3.org/2000/svg" xmlns:svg="http://www.w3.org/2000/svg" xmlns:se="http://svg-edit.googlecode.com">
 <!-- Created with SVG-edit - https://github.com/SVG-Edit/svgedit-->
 <g class="layer">
  <title>Layer 1</title>
  <polyline fill="none" id="conn_svg_29" points="73 259.627 111 260 149 260.373" se:connector="svg_26 svg_27" stroke="#000000" stroke-width="5"/>
  <polyline fill="none" id="conn_svg_28" points="73 256.677 69.617 257.411 66.2341 258.146" se:connector="svg_26 svg_25" stroke="#000000" stroke-width="5"/>
  <ellipse cx="131" cy="28.5" fill="#000000" id="svg_5" rx="3" ry="3" stroke="#000000"/>
  <text fill="#000000" font-family="Serif" font-size="16" id="svg_6" stroke="#000000" stroke-width="0" text-anchor="middle" transform="rotate(-0.251002 129.313 57.9981) matrix(0.9999 -0.0141169 0.0141169 0.9999 -0.868638 1.94253)" x="129.1" xml:space="preserve" y="63.39">This is buggy, buggy says hi</text>
  <ellipse cx="405" cy="29.5" fill="#000000" id="svg_7" rx="3" ry="3" stroke="#000000"/>
  <line fill="none" id="svg_9" stroke="#000000" x1="126" x2="135" y1="23.5" y2="28.5"/>
  <line fill="none" id="svg_10" stroke="#000000" x1="126" x2="135" y1="26.5" y2="31.5"/>
  <path d="m404,29.5c0,0.8 0,1.7 0,2.6c0,0.9 -0.25,1.84 0,2.7c0.22,0.75 0.99,0.09 1,-0.8c0.01,-0.9 0,-1.8 0,-2.7c0,-0.9 0.53,-2.33 0,-2.33c-0.83,0 -0.15,1.74 0,2.63c0.14,0.85 1,1.3 1.5,1.9c0.53,0.63 0.5,-0.2 0.5,-1.1c0,-0.9 0.11,-1.71 -0.04,-2.54c-0.19,-1.05 -1.6,-1.4 -1.34,-2.29c0.11,-0.37 1.18,-0.07 2.08,-0.07c0.9,0 2.68,0.88 2.68,0c0,-0.38 -1.21,-0.17 -1.38,-1c-0.17,-0.83 -1.04,-0.83 -1.8,-1.09c-0.89,-0.3 -1.63,-1.15 -2.5,-0.91c-0.77,0.21 -0.6,1.3 -0.71,2.2c-0.11,0.92 -0.65,1.62 -1.6,1.79c-0.87,0.16 -1.45,-0.64 -2.16,-1.1c-0.72,-0.46 -1.57,-0.96 -2,-1.87c-0.32,-0.68 0.69,-1.41 1.47,-0.94c0.8,0.49 1.26,1.27 1.29,2.11c0.03,0.9 0,1.8 0,2.6c0,0.9 0.22,2.55 0.83,2.03c0.54,-0.46 -0.95,-0.66 -1.83,-0.83c-0.88,-0.17 -0.99,-1.02 -1,-1.98c-0.01,-0.91 0,-1.85 0,-2.54c0,-1.07 -0.17,-1.85 -0.57,-2.51c-0.35,-0.57 0.38,-0.17 1.07,0.53c0.6,0.6 1.18,1.19 2.02,1.5c0.95,0.34 1.67,0.66 2.68,0.88c0.77,0.17 1.91,-0.22 2.51,0.21c0.83,0.59 1.03,1.45 1.25,2.31c0.22,0.87 -0.13,1.86 0.26,2.7c0.36,0.78 1.02,1.43 1.19,2.29c0.11,0.55 -1.01,0.28 -1.33,-0.59c-0.31,-0.85 -0.54,-2.07 0.14,-2.68c0.66,-0.59 1.84,-0.34 1.78,-1.22c-0.06,-0.81 -1.32,-0.61 -1.83,-1.23c-0.55,-0.68 -0.53,-1.74 -0.88,-2.47c-0.37,-0.76 -0.29,-1.7 -0.28,-2.6c0,-0.9 0.45,-1.6 1.32,-1.6c0.82,0 1.61,0.55 2.03,1.3c0.47,0.83 0.65,1.5 0.65,2.4c0,0.9 0.1,1.81 -0.01,2.71c-0.11,0.93 -0.55,1.57 -0.87,2.57c-0.26,0.81 -0.83,1.44 -1.09,2.42c-0.23,0.87 0.15,1.9 -0.32,2.52c-0.52,0.68 -1.24,1.07 -2.12,1.08c-0.9,0.01 -2.08,0.33 -2.54,-0.36c-0.53,-0.78 -0.53,-1.39 -1.35,-1.65c-0.76,-0.24 -1.3,-0.93 -2.03,-1.44c-0.72,-0.5 -1.78,-0.96 -1.62,-2.02c0.12,-0.75 1.51,-0.88 2.33,-0.53c0.78,0.33 0.68,1.71 -0.1,1.92c-0.67,0.18 -1.69,-0.5 -2.29,-0.93l-0.6,-0.43" fill="none" id="svg_11" stroke="#000000"/>
  <text fill="#000000" font-family="Serif" font-size="16" id="svg_12" stroke="#000000" stroke-width="0" text-anchor="middle" x="402" xml:space="preserve" y="64.5">This is buggy when a car comes by</text>
  <path d="m-5,181.5l637,1.5l1,293l-636,1" fill="#000000" id="svg_13" stroke="#000000"/>
  <rect fill="#ffff00" height="0" id="svg_14" stroke="#000000" transform="matrix(1 0 0 1 0 0)" width="0" x="355" y="622.5"/>
  <rect fill="#ffff00" height="35" id="svg_15" stroke="#000000" transform="matrix(1 0 0 1 0 0)" width="80" x="84" y="314.5"/>
  <rect fill="#ffff00" height="35" id="svg_16" stroke="#000000" width="80" x="223" y="314.5"/>
  <rect fill="#ffff00" height="35" id="svg_17" stroke="#000000" width="80" x="365" y="313.5"/>
  <rect fill="#ffff00" height="35" id="svg_18" stroke="#000000" width="80" x="505" y="313.5"/>
  <path d="m114.17,240.7c100.12,13.33 39.11,17.91 39.17,17.41c0.06,-0.5 -142.33,2.13 -90.26,-11.61c52.07,-13.74 51.09,-5.8 51.09,-5.8z" fill="#ff0000" id="svg_25" stroke="#000000"/>
  <ellipse cx="60" cy="259.5" fill="#4c4c4c" id="svg_26" rx="13" ry="12" stroke="#000000"/>
  <ellipse cx="162" cy="260.5" fill="#4c4c4c" id="svg_27" rx="13" ry="12" stroke="#000000"/>
  <ellipse cx="113" cy="241" fill="#ffffff" id="svg_30" rx="17" ry="3.5" stroke="#000000"/>
 </g>
</svg>